<?xml version="1.0" encoding="UTF-8" standalone="no"?>
<!DOCTYPE svg PUBLIC "-//W3C//DTD SVG 1.1//EN"
 "http://www.w3.org/Graphics/SVG/1.1/DTD/svg11.dtd">
<!-- Generated by graphviz version 2.40.1 (20161225.0304)
 -->
<!-- Title: dependencies Pages: 1 -->
<svg width="504pt" height="276pt"
 viewBox="0.00 0.00 504.00 276.00" xmlns="http://www.w3.org/2000/svg" xmlns:xlink="http://www.w3.org/1999/xlink">
<g id="graph0" class="graph" transform="scale(1 1) rotate(0) translate(4 272)">
<title>dependencies</title>
<polygon fill="#ffffff" stroke="transparent" points="-4,4 -4,-272 500,-272 500,4 -4,4"/>
<text text-anchor="start" x="227.0091" y="-42.4" font-family="sans-serif" font-weight="bold" font-size="14.00" fill="#000000">Legend</text>
<polygon fill="#ffffb3" stroke="transparent" points="14,-10 14,-30 34,-30 34,-10 14,-10"/>
<text text-anchor="start" x="37.629" y="-15.4" font-family="sans-serif" font-size="14.00" fill="#000000"> &#160;Declarations</text>
<polygon fill="#8dd3c7" stroke="transparent" points="127,-10 127,-30 147,-30 147,-10 127,-10"/>
<text text-anchor="start" x="150.7251" y="-15.4" font-family="sans-serif" font-size="14.00" fill="#000000"> &#160;Module</text>
<polygon fill="#80b1d3" stroke="transparent" points="213,-10 213,-30 233,-30 233,-10 213,-10"/>
<text text-anchor="start" x="236.7812" y="-15.4" font-family="sans-serif" font-size="14.00" fill="#000000"> &#160;Bootstrap</text>
<polygon fill="#fdb462" stroke="transparent" points="310,-10 310,-30 330,-30 330,-10 310,-10"/>
<text text-anchor="start" x="333.6732" y="-15.4" font-family="sans-serif" font-size="14.00" fill="#000000"> &#160;Providers</text>
<polygon fill="#fb8072" stroke="transparent" points="406,-10 406,-30 426,-30 426,-10 406,-10"/>
<text text-anchor="start" x="429.7258" y="-15.4" font-family="sans-serif" font-size="14.00" fill="#000000"> &#160;Exports</text>
<g id="clust1" class="cluster">
<title>cluster_AppModule</title>
<polygon fill="none" stroke="#000000" stroke-dasharray="1,5" points="107.5,-70 107.5,-260 388.5,-260 388.5,-70 107.5,-70"/>
</g>
<g id="clust3" class="cluster">
<title>cluster_AppModule_imports</title>
<polygon fill="none" stroke="#000000" points="194.5,-143 194.5,-195 302.5,-195 302.5,-143 194.5,-143"/>
</g>
<g id="clust6" class="cluster">
<title>cluster_AppModule_providers</title>
<polygon fill="none" stroke="#000000" points="115.5,-78 115.5,-130 380.5,-130 380.5,-78 115.5,-78"/>
</g>
<!-- TasksModule -->
<g id="node1" class="node">
<title>TasksModule</title>
<polygon fill="#8dd3c7" stroke="#000000" points="294.7064,-187 291.7064,-191 270.7064,-191 267.7064,-187 202.2936,-187 202.2936,-151 294.7064,-151 294.7064,-187"/>
<text text-anchor="middle" x="248.5" y="-164.8" font-family="Times,serif" font-size="14.00" fill="#000000">TasksModule</text>
</g>
<!-- AppModule -->
<g id="node2" class="node">
<title>AppModule</title>
<polygon fill="#8dd3c7" stroke="#000000" points="290.1571,-252 287.1571,-256 266.1571,-256 263.1571,-252 206.8429,-252 206.8429,-216 290.1571,-216 290.1571,-252"/>
<text text-anchor="middle" x="248.5" y="-229.8" font-family="Times,serif" font-size="14.00" fill="#000000">AppModule</text>
</g>
<!-- TasksModule&#45;&gt;AppModule -->
<g id="edge1" class="edge">
<title>TasksModule&#45;&gt;AppModule</title>
<path fill="none" stroke="#000000" d="M248.5,-187.1061C248.5,-187.1061 248.5,-205.991 248.5,-205.991"/>
<polygon fill="#000000" stroke="#000000" points="245.0001,-205.9909 248.5,-215.991 252.0001,-205.991 245.0001,-205.9909"/>
</g>
<!-- AppService -->
<g id="node3" class="node">
<title>AppService</title>
<ellipse fill="#fdb462" stroke="#000000" cx="180.5" cy="-104" rx="56.7406" ry="18"/>
<text text-anchor="middle" x="180.5" y="-99.8" font-family="Times,serif" font-size="14.00" fill="#000000">AppService</text>
</g>
<!-- AppService&#45;&gt;AppModule -->
<g id="edge2" class="edge">
<title>AppService&#45;&gt;AppModule</title>
<path fill="none" stroke="#000000" d="M163.1384,-121.263C163.1384,-156.6255 163.1384,-234 163.1384,-234 163.1384,-234 196.8194,-234 196.8194,-234"/>
<polygon fill="#000000" stroke="#000000" points="196.8195,-237.5001 206.8194,-234 196.8194,-230.5001 196.8195,-237.5001"/>
</g>
<!-- TaskService -->
<g id="node4" class="node">
<title>TaskService</title>
<ellipse fill="#fdb462" stroke="#000000" cx="313.5" cy="-104" rx="58.5251" ry="18"/>
<text text-anchor="middle" x="313.5" y="-99.8" font-family="Times,serif" font-size="14.00" fill="#000000">TaskService</text>
</g>
<!-- TaskService&#45;&gt;TasksModule -->
<g id="edge4" class="edge">
<title>TaskService&#45;&gt;TasksModule</title>
<path fill="none" stroke="#000000" d="M274.6705,-117.7848C274.6705,-117.7848 274.6705,-140.5475 274.6705,-140.5475"/>
<polygon fill="#000000" stroke="#000000" points="271.1706,-140.5474 274.6705,-150.5475 278.1706,-140.5475 271.1706,-140.5474"/>
</g>
<!-- TaskService&#45;&gt;AppModule -->
<g id="edge3" class="edge">
<title>TaskService&#45;&gt;AppModule</title>
<path fill="none" stroke="#000000" d="M333.4326,-120.9952C333.4326,-156.2333 333.4326,-234 333.4326,-234 333.4326,-234 300.4687,-234 300.4687,-234"/>
<polygon fill="#000000" stroke="#000000" points="300.4687,-230.5001 290.4687,-234 300.4686,-237.5001 300.4687,-230.5001"/>
</g>
</g>
</svg>
